<svg xmlns="http://www.w3.org/2000/svg" viewBox="0 0 452.6 73.7" width="452.6" height="73.7" xmlns:c2pa="http://c2pa.org/manifest"><metadata><c2pa:manifest>AAAWgmp1bWIAAAAeanVtZGMycGEAEQAQgAAAqgA4m3EDYzJwYQAAABZcanVtYgAAAEdqdW1kYzJtYQARABCAAACqADibcQN1cm46YzJwYTo1ZTJjM2FkNC00NTQ1LTQ0YzYtODI1MC0xYjIyYTlkM2U4MGIAAAADl2p1bWIAAAApanVtZGMyYXMAEQAQgAAAqgA4m3EDYzJwYS5hc3NlcnRpb25zAAAAALxqdW1iAAAARGp1bWRjYm9yABEAEIAAAKoAOJtxE2MycGEuaW5ncmVkaWVudC52MwAAAAAYYzJzaOFWywRnP9+Cma2jyCNYw48AAABwY2JvcqNpZGM6Zm9ybWF0bWltYWdlL3N2Zyt4bWxqaW5zdGFuY2VJRHgseG1wOmlpZDo0ZWNiN2M3My0yZjE1LTQyM2MtOGYxOC1iYjc2YzU1ODg2NGRscmVsYXRpb25zaGlwaHBhcmVudE9mAAAB4mp1bWIAAABBanVtZGNib3IAEQAQgAAAqgA4m3ETYzJwYS5hY3Rpb25zLnYyAAAAABhjMnNoyo+nYlQNIeW0ALZsZIJXfwAAAZljYm9yomdhY3Rpb25zgqJmYWN0aW9ua2MycGEub3BlbmVkanBhcmFtZXRlcnOha2luZ3JlZGllbnRzgaJjdXJseC1zZWxmI2p1bWJmPWMycGEuYXNzZXJ0aW9ucy9jMnBhLmluZ3JlZGllbnQudjNkaGFzaFggGX4Ko3WxRqlX6HVHR3q0VfwpsqnlHPvCt6Zr7SKKYZKkZmFjdGlvbngdY29tLmFudGhyb3BpYy5jbGF1ZGUucHJvdmlkZWRqcGFyYW1ldGVyc6F4H2NvbS5hbnRocm9waWMub3JpZ2luLWNvbmZpZGVuY2VndW5rbm93bmtkZXNjcmlwdGlvbnhmQ2xhdWRlIHByb3ZpZGVkIHRoaXMgZmlsZSBhdCB0aGUgcmVxdWVzdCBvZiBhIHVzZXIgYW5kIG1heSBoYXZlIGNyZWF0ZWQgb3IgbW9kaWZpZWQgdGhlIGZpbGUgY29udGVudHMubXNvZnR3YXJlQWdlbnShZG5hbWVmQ2xhdWRlcmFsbEFjdGlvbnNJbmNsdWRlZPUAAADIanVtYgAAAEBqdW1kY2JvcgARABCAAACqADibcRNjMnBhLmhhc2guZGF0YQAAAAAYYzJzaEIdfqcDQ0M6E9FwmvLKeZEAAACAY2JvcqVjYWxnZnNoYTI1NmNwYWRNAAAAAAAAAAAAAAAAAGRoYXNoWCBVzOyUZKV5JNY0VB2OalEORZhCCazo/u8x6s4vi4cDj2RuYW1lbmp1bWJmIG1hbmlmZXN0amV4Y2x1c2lvbnOBomVzdGFydBicZmxlbmd0aBkeBAAAAj5qdW1iAAAAJ2p1bWRjMmNsABEAEIAAAKoAOJtxA2MycGEuY2xhaW0udjIAAAACD2Nib3KlY2FsZ2ZzaGEyNTZpc2lnbmF0dXJleE1zZWxmI2p1bWJmPS9jMnBhL3VybjpjMnBhOjVlMmMzYWQ0LTQ1NDUtNDRjNi04MjUwLTFiMjJhOWQzZTgwYi9jMnBhLnNpZ25hdHVyZWppbnN0YW5jZUlEeCx4bXA6aWlkOjQzZGRhZTFiLThmZjMtNDliOS1iMzNlLTdmNjc1OGI3OTE3OXJjcmVhdGVkX2Fzc2VydGlvbnODomN1cmx4LXNlbGYjanVtYmY9YzJwYS5hc3NlcnRpb25zL2MycGEuaW5ncmVkaWVudC52M2RoYXNoWCAZfgqjdbFGqVfodUdHerRV/CmyqeUc+8K3pmvtIophkqJjdXJseCpzZWxmI2p1bWJmPWMycGEuYXNzZXJ0aW9ucy9jMnBhLmFjdGlvbnMudjJkaGFzaFggZFEdxiTkiar9yn7CBFOG+ZAiNcLpeQpdNvWqlbs5XyaiY3VybHgpc2VsZiNqdW1iZj1jMnBhLmFzc2VydGlvbnMvYzJwYS5oYXNoLmRhdGFkaGFzaFggeYj9mVNtriU5SV53rj5dc2z7gO518fzvTCwaa4d4JOB0Y2xhaW1fZ2VuZXJhdG9yX2luZm+jZG5hbWVvQW50aHJvcGljIEZpbGVzZ3ZlcnNpb25lMS4wLjBrc3BlY1ZlcnNpb25lMi40LjAAABA4anVtYgAAAChqdW1kYzJjcwARABCAAACqADibcQNjMnBhLnNpZ25hdHVyZQAAABAIY2JvctKEWQISogEmGCFZAgowggIGMIIBjaADAgECAhRA5aAK7sI50L64g/oGQgU9Z1UTADAKBggqhkjOPQQDAzBJMRcwFQYDVQQKEw5BbnRocm9waWMsIFBCQzEuMCwGA1UEAxMlQW50aHJvcGljIENvbnRlbnQgQ3JlZGVudGlhbHMgUm9vdCBDQTAeFw0yNjA4MDcxODQzNTZaFw0yODA4MDYxOTQzNTZaMEQxFzAVBgNVBAoTDkFudGhyb3BpYywgUEJDMSkwJwYDVQQDEyBBbnRocm9waWMgQ2xhdWRlIENvbnRlbnQgU2lnbmluZzBZMBMGByqGSM49AgEGCCqGSM49AwEHA0IABJh6CmvLUBgFFNU0vUKlOVtE6djd17L5SuwX0LemFisBM3dkd/3cyjxFA3Qo5S46fX0/ihY0VZ7mfb9KF703t5OjWDBWMA4GA1UdDwEB/wQEAwIHgDAVBgNVHSUEDjAMBgorBgEEAYPoXgIBMAwGA1UdEwEB/wQCMAAwHwYDVR0jBBgwFoAUzlHiBIFOZFsj+OPEz5o+nMHXXMIwCgYIKoZIzj0EAwMDZwAwZAIwMXMdFJ4BetLLVY7ORuE9noqbbAZOZn/aArXyTwFAZfKrPzxF2vPoJNf1+UCdg1XGAjBwX1zd9WGqYkqmL5SFqw1QySjr1zJfpJM9+1rdDwSPLMOPOjKuiXjoU/pUUeG9RwmhY3BhZFkNngAAAAAAAAAAAAAAAAAAAAAAAAAAAAAAAAAAAAAAAAAAAAAAAAAAAAAAAAAAAAAAAAAAAAAAAAAAAAAAAAAAAAAAAAAAAAAAAAAAAAAAAAAAAAAAAAAAAAAAAAAAAAAAAAAAAAAAAAAAAAAAAAAAAAAAAAAAAAAAAAAAAAAAAAAAAAAAAAAAAAAAAAAAAAAAAAAAAAAAAAAAAAAAAAAAAAAAAAAAAAAAAAAAAAAAAAAAAAAAAAAAAAAAAAAAAAAAAAAAAAAAAAAAAAAAAAAAAAAAAAAAAAAAAAAAAAAAAAAAAAAAAAAAAAAAAAAAAAAAAAAAAAAAAAAAAAAAAAAAAAAAAAAAAAAAAAAAAAAAAAAAAAAAAAAAAAAAAAAAAAAAAAAAAAAAAAAAAAAAAAAAAAAAAAAAAAAAAAAAAAAAAAAAAAAAAAAAAAAAAAAAAAAAAAAAAAAAAAAAAAAAAAAAAAAAAAAAAAAAAAAAAAAAAAAAAAAAAAAAAAAAAAAAAAAAAAAAAAAAAAAAAAAAAAAAAAAAAAAAAAAAAAAAAAAAAAAAAAAAAAAAAAAAAAAAAAAAAAAAAAAAAAAAAAAAAAAAAAAAAAAAAAAAAAAAAAAAAAAAAAAAAAAAAAAAAAAAAAAAAAAAAAAAAAAAAAAAAAAAAAAAAAAAAAAAAAAAAAAAAAAAAAAAAAAAAAAAAAAAAAAAAAAAAAAAAAAAAAAAAAAAAAAAAAAAAAAAAAAAAAAAAAAAAAAAAAAAAAAAAAAAAAAAAAAAAAAAAAAAAAAAAAAAAAAAAAAAAAAAAAAAAAAAAAAAAAAAAAAAAAAAAAAAAAAAAAAAAAAAAAAAAAAAAAAAAAAAAAAAAAAAAAAAAAAAAAAAAAAAAAAAAAAAAAAAAAAAAAAAAAAAAAAAAAAAAAAAAAAAAAAAAAAAAAAAAAAAAAAAAAAAAAAAAAAAAAAAAAAAAAAAAAAAAAAAAAAAAAAAAAAAAAAAAAAAAAAAAAAAAAAAAAAAAAAAAAAAAAAAAAAAAAAAAAAAAAAAAAAAAAAAAAAAAAAAAAAAAAAAAAAAAAAAAAAAAAAAAAAAAAAAAAAAAAAAAAAAAAAAAAAAAAAAAAAAAAAAAAAAAAAAAAAAAAAAAAAAAAAAAAAAAAAAAAAAAAAAAAAAAAAAAAAAAAAAAAAAAAAAAAAAAAAAAAAAAAAAAAAAAAAAAAAAAAAAAAAAAAAAAAAAAAAAAAAAAAAAAAAAAAAAAAAAAAAAAAAAAAAAAAAAAAAAAAAAAAAAAAAAAAAAAAAAAAAAAAAAAAAAAAAAAAAAAAAAAAAAAAAAAAAAAAAAAAAAAAAAAAAAAAAAAAAAAAAAAAAAAAAAAAAAAAAAAAAAAAAAAAAAAAAAAAAAAAAAAAAAAAAAAAAAAAAAAAAAAAAAAAAAAAAAAAAAAAAAAAAAAAAAAAAAAAAAAAAAAAAAAAAAAAAAAAAAAAAAAAAAAAAAAAAAAAAAAAAAAAAAAAAAAAAAAAAAAAAAAAAAAAAAAAAAAAAAAAAAAAAAAAAAAAAAAAAAAAAAAAAAAAAAAAAAAAAAAAAAAAAAAAAAAAAAAAAAAAAAAAAAAAAAAAAAAAAAAAAAAAAAAAAAAAAAAAAAAAAAAAAAAAAAAAAAAAAAAAAAAAAAAAAAAAAAAAAAAAAAAAAAAAAAAAAAAAAAAAAAAAAAAAAAAAAAAAAAAAAAAAAAAAAAAAAAAAAAAAAAAAAAAAAAAAAAAAAAAAAAAAAAAAAAAAAAAAAAAAAAAAAAAAAAAAAAAAAAAAAAAAAAAAAAAAAAAAAAAAAAAAAAAAAAAAAAAAAAAAAAAAAAAAAAAAAAAAAAAAAAAAAAAAAAAAAAAAAAAAAAAAAAAAAAAAAAAAAAAAAAAAAAAAAAAAAAAAAAAAAAAAAAAAAAAAAAAAAAAAAAAAAAAAAAAAAAAAAAAAAAAAAAAAAAAAAAAAAAAAAAAAAAAAAAAAAAAAAAAAAAAAAAAAAAAAAAAAAAAAAAAAAAAAAAAAAAAAAAAAAAAAAAAAAAAAAAAAAAAAAAAAAAAAAAAAAAAAAAAAAAAAAAAAAAAAAAAAAAAAAAAAAAAAAAAAAAAAAAAAAAAAAAAAAAAAAAAAAAAAAAAAAAAAAAAAAAAAAAAAAAAAAAAAAAAAAAAAAAAAAAAAAAAAAAAAAAAAAAAAAAAAAAAAAAAAAAAAAAAAAAAAAAAAAAAAAAAAAAAAAAAAAAAAAAAAAAAAAAAAAAAAAAAAAAAAAAAAAAAAAAAAAAAAAAAAAAAAAAAAAAAAAAAAAAAAAAAAAAAAAAAAAAAAAAAAAAAAAAAAAAAAAAAAAAAAAAAAAAAAAAAAAAAAAAAAAAAAAAAAAAAAAAAAAAAAAAAAAAAAAAAAAAAAAAAAAAAAAAAAAAAAAAAAAAAAAAAAAAAAAAAAAAAAAAAAAAAAAAAAAAAAAAAAAAAAAAAAAAAAAAAAAAAAAAAAAAAAAAAAAAAAAAAAAAAAAAAAAAAAAAAAAAAAAAAAAAAAAAAAAAAAAAAAAAAAAAAAAAAAAAAAAAAAAAAAAAAAAAAAAAAAAAAAAAAAAAAAAAAAAAAAAAAAAAAAAAAAAAAAAAAAAAAAAAAAAAAAAAAAAAAAAAAAAAAAAAAAAAAAAAAAAAAAAAAAAAAAAAAAAAAAAAAAAAAAAAAAAAAAAAAAAAAAAAAAAAAAAAAAAAAAAAAAAAAAAAAAAAAAAAAAAAAAAAAAAAAAAAAAAAAAAAAAAAAAAAAAAAAAAAAAAAAAAAAAAAAAAAAAAAAAAAAAAAAAAAAAAAAAAAAAAAAAAAAAAAAAAAAAAAAAAAAAAAAAAAAAAAAAAAAAAAAAAAAAAAAAAAAAAAAAAAAAAAAAAAAAAAAAAAAAAAAAAAAAAAAAAAAAAAAAAAAAAAAAAAAAAAAAAAAAAAAAAAAAAAAAAAAAAAAAAAAAAAAAAAAAAAAAAAAAAAAAAAAAAAAAAAAAAAAAAAAAAAAAAAAAAAAAAAAAAAAAAAAAAAAAAAAAAAAAAAAAAAAAAAAAAAAAAAAAAAAAAAAAAAAAAAAAAAAAAAAAAAAAAAAAAAAAAAAAAAAAAAAAAAAAAAAAAAAAAAAAAAAAAAAAAAAAAAAAAAAAAAAAAAAAAAAAAAAAAAAAAAAAAAAAAAAAAAAAAAAAAAAAAAAAAAAAAAAAAAAAAAAAAAAAAAAAAAAAAAAAAAAAAAAAAAAAAAAAAAAAAAAAAAAAAAAAAAAAAAAAAAAAAAAAAAAAAAAAAAAAAAAAAAAAAAAAAAAAAAAAAAAAAAAAAAAAAAAAAAAAAAAAAAAAAAAAAAAAAAAAAAAAAAAAAAAAAAAAAAAAAAAAAAAAAAAAAAAAAAAAAAAAAAAAAAAAAAAAAAAAAAAAAAAAAAAAAAAAAAAAAAAAAAAAAAAAAAAAAAAAAAAAAAAAAAAAAAAAAAAAAAAAAAAAAAAAAAAAAAAAAAAAAAAAAAAAAAAAAAAAAAAAAAAAAAAAAAAAAAAAAAAAAAAAAAAAAAAAAAAAAAAAAAAAAAAAAAAAAAAAAAAAAAAAAAAAAAAAAAAAAAAAAAAAAAAAAAAAAAAAAAAAAAAAAAAAAAAAAAAAAAAAAAAAAAAAAAAAAAAAAAAAAAAAAAAAAAAAAAAAAAAAAAAAAAAAAAAAAAAAAAAAAAAAAAAAAAAAAAAAAAAAAAAAAAAAAAAAAAAAAAAAAAAAAAAAAAAAAAAAAAAAAAAAAAAAAAAAAAAAAAAAAAAAAAAAAAAAAAAAAAAAAAAAAAAAAAAAAAAAAAAAAAAAAAAAAAAAAAAAAAAAAAAAAAAAAAAAAAAAAAAAAAAAAAAAAAAAAAAAAAAAAAAAAAAAAAAAAAAAAAAAAAAAAAAAAAAAAAAAAAAAAAAAAAAAAAAAAAAAAAAAAAAAAAAAAAAAAAAAAAAAAAAAAAAAAAAAAAAAAAAAAAAAAAAAAAAAAAAAAAAAAAAAAAAAAAAAAAAAAAAAAAAAAAAAAAAAAAAAAAAAAAAAAAAAAAAAAAAAAAAAAAAAAAAAAAAAAAAAAAAAAAAAAAAAAAAAAAAAAAAAAAAAAAAAAAAAAAAAAAAAAAAAAAAAAAAAAAAAAAAAAAAAAAAAAAAAAAAAAAAAAAAAAAAAAAAAAAAAAAAAAAAAAAAAAAAAAAAAAAAAAAAAAAAAAAAAAAAAAAAAAAAAAAAAAAAAAAAAAAAAAAAAAAAAAAAAAAAAAAAAAAAAAAAAAAAAAAAAAAAAAAAAAAAAAAAAAAAAAAAAAAAAAAAAAAAAAAAAAAAAAAAAAAAAAAAAAAAAAAAAAAAAAAAAAAAAAAAAAAAAAAAAAAAAAAAAAAAAAAAAAAAAAAAAAAAAAAAAAAAAAAAAAAAAAAAAAAAAAAAAAAAAAAAAAAAAAAAAAAAAAAAAAAAAAAAAAAAAAAAAAAAAAAAAAAAAAAAAAAAAAAAAAAAAAAAAAAAAAAAAAAAAAAAAAAAAAAAAAAAAAAAAAAAAAAAAAAAAAAAAAAAAAAAAAAAAAAAAAAAAAAAAAAAAAAAAAAAAAAAAAAAAAAAAAAAAAAAAAAAAAAAAAAAAAAAAAAAAAAAAAAAAAAAAAAAAAAAAAAAAAAAAAAAAAAAAAAAAAAAAAAAAAAAPZYQJTfJWUt2ETl0AFmWLcrQC42chMnJaN+bt67D2AAcbt0NokSmSPXcW2Y5HRKIj4Jiq6OxwiyItkQdISCPSToV74=</c2pa:manifest></metadata><path d="M31.60 73.70L31.60 73.70Q25.10 73.70 19.40 72.55Q13.70 71.40 9.35 68.80Q5 66.20 2.50 61.95Q0 57.70 0 51.50L0 51.50L0 50.60Q0 50.10 0.10 49.80L0.10 49.80L17.40 49.80Q17.40 50.10 17.35 50.55Q17.30 51 17.30 51.30L17.30 51.30Q17.30 54.50 18.95 56.45Q20.60 58.40 23.60 59.25Q26.60 60.10 30.60 60.10L30.60 60.10Q32.80 60.10 34.70 59.90Q36.60 59.70 38.10 59.20Q39.60 58.70 40.75 57.95Q41.90 57.20 42.45 56.15Q43.00 55.10 43.00 53.70L43.00 53.70Q43.00 51.40 41.25 49.90Q39.50 48.40 36.55 47.40Q33.60 46.40 29.90 45.50Q26.20 44.60 22.20 43.60Q18.20 42.60 14.50 41.10Q10.80 39.60 7.85 37.30Q4.90 35 3.15 31.55Q1.40 28.10 1.40 23.20L1.40 23.20Q1.40 17.80 3.70 13.85Q6 9.90 10.05 7.40Q14.10 4.90 19.40 3.75Q24.70 2.60 30.70 2.60L30.70 2.60Q36.60 2.60 41.75 3.80Q46.90 5 50.90 7.55Q54.90 10.10 57.15 13.95Q59.40 17.80 59.50 23.20L59.50 23.20L59.50 24.40L42.30 24.40L42.30 23.70Q42.30 21.40 41.05 19.65Q39.80 17.90 37.30 16.85Q34.80 15.80 31.10 15.80Q27.40 15.80 24.85 16.50Q22.30 17.20 20.95 18.50Q19.60 19.80 19.60 21.60L19.60 21.60Q19.60 23.80 21.35 25.20Q23.10 26.60 26.10 27.60Q29.10 28.60 32.80 29.45Q36.50 30.30 40.45 31.25Q44.40 32.20 48.10 33.65Q51.80 35.10 54.80 37.35Q57.80 39.60 59.55 42.90Q61.30 46.20 61.30 50.90L61.30 50.90Q61.30 59.10 57.45 64.10Q53.60 69.10 46.85 71.40Q40.10 73.70 31.60 73.70ZM86 73.70L86 73.70Q80.90 73.70 77.35 72.15Q73.80 70.60 72.05 67.50Q70.30 64.40 70.30 60L70.30 60L70.30 31.70L63.40 31.70L63.40 19.80L70.80 19.80L74.20 4.40L86.60 4.40L86.60 19.80L96.90 19.80L96.90 31.70L86.60 31.70L86.60 56Q86.60 58.80 87.70 60.30Q88.80 61.80 91.70 61.80L91.70 61.80L96.90 61.80L96.90 72Q95.60 72.40 93.65 72.85Q91.70 73.30 89.70 73.50Q87.70 73.70 86 73.70ZM127.50 73.70L127.50 73.70Q118.70 73.70 112.45 70.70Q106.20 67.70 102.85 61.55Q99.50 55.40 99.50 46.10L99.50 46.10Q99.50 36.80 102.85 30.70Q106.20 24.60 112.45 21.60Q118.70 18.60 127.50 18.60L127.50 18.60Q136.40 18.60 142.65 21.60Q148.90 24.60 152.25 30.70Q155.60 36.80 155.60 46.10L155.60 46.10Q155.60 55.40 152.25 61.55Q148.90 67.70 142.65 70.70Q136.40 73.70 127.50 73.70ZM127.50 61.80L127.50 61.80Q131.60 61.80 134.15 60.20Q136.70 58.60 137.85 55.55Q139 52.50 139 48L139 48L139 44.30Q139 39.80 137.85 36.70Q136.70 33.60 134.15 32.05Q131.60 30.50 127.50 30.50L127.50 30.50Q123.50 30.50 120.95 32.05Q118.40 33.60 117.25 36.70Q116.10 39.80 116.10 44.30L116.10 44.30L116.10 48Q116.10 52.50 117.25 55.55Q118.40 58.60 120.95 60.20Q123.50 61.80 127.50 61.80ZM177.90 72.50L161.50 72.50L161.50 0L177.90 0L177.90 41L195.70 19.80L214.90 19.80L196.20 40.70L215.60 72.50L196.90 72.50L185.20 52L177.90 59.10L177.90 72.50Z" fill="#0F4A36"></path><path d="M259.20 72.50L238.40 72.50L213.70 3.80L232.90 3.80L245.50 42.60Q245.90 43.80 246.50 45.75Q247.10 47.70 247.75 49.75Q248.40 51.80 248.80 53.40L248.80 53.40L249.50 53.40Q250 51.90 250.55 49.95Q251.10 48 251.70 46.05Q252.30 44.10 252.70 42.70L252.70 42.70L265.30 3.80L283.80 3.80L259.20 72.50ZM296.60 73.70L296.60 73.70Q293.30 73.70 290.15 73.05Q287.00 72.40 284.45 70.75Q281.90 69.10 280.40 66.20Q278.90 63.30 278.90 58.90L278.90 58.90Q278.90 53.20 281.30 49.60Q283.70 46 288.25 43.95Q292.80 41.90 299.25 41.10Q305.70 40.30 313.70 40.30L313.70 40.30L313.70 37Q313.70 34.70 312.80 33.15Q311.90 31.60 310.15 30.75Q308.40 29.90 305.50 29.90L305.50 29.90Q302.90 29.90 300.95 30.50Q299.00 31.10 298.00 32.25Q297.00 33.40 297.00 35L297.00 35L297.00 35.90L281.00 35.90Q280.90 35.40 280.90 35L280.90 35L280.90 34.10Q280.90 29.40 283.85 25.90Q286.80 22.40 292.30 20.50Q297.80 18.60 305.60 18.60L305.60 18.60Q312.90 18.60 318.35 20.40Q323.80 22.20 326.95 25.90Q330.10 29.60 330.10 35.60L330.10 35.60L330.10 58.10Q330.10 59.80 331.05 60.80Q332.00 61.80 333.40 61.80L333.40 61.80L336.80 61.80L336.80 71.90Q335.70 72.40 333.35 73.05Q331.00 73.70 327.70 73.70L327.70 73.70Q324.30 73.70 321.75 72.85Q319.20 72 317.55 70.45Q315.90 68.90 315.30 66.80L315.30 66.80L314.60 66.80Q312.70 68.80 310.15 70.40Q307.60 72 304.25 72.85Q300.90 73.70 296.60 73.70ZM302.70 62.40L302.70 62.40Q305.10 62.40 307.10 61.70Q309.10 61 310.55 59.75Q312.00 58.50 312.85 56.70Q313.70 54.90 313.70 52.80L313.70 52.80L313.70 49.30Q308.00 49.30 303.90 50.10Q299.80 50.90 297.60 52.60Q295.40 54.30 295.40 56.90L295.40 56.90Q295.40 58.80 296.35 60.05Q297.30 61.30 298.90 61.85Q300.50 62.40 302.70 62.40ZM357.00 73.70L357.00 73.70Q348.50 73.70 343.85 69Q339.20 64.30 339.20 54.60L339.20 54.60L339.20 19.80L355.60 19.80L355.60 52.30Q355.60 54.40 356.15 56Q356.70 57.60 357.70 58.70Q358.70 59.80 360.25 60.30Q361.80 60.80 363.60 60.80L363.60 60.80Q366.50 60.80 368.70 59.45Q370.90 58.10 372.20 55.75Q373.50 53.40 373.50 50.60L373.50 50.60L373.50 19.80L389.90 19.80L389.90 72.50L376.40 72.50L375.40 65L374.70 65Q372.90 67.60 370.15 69.60Q367.40 71.60 364.05 72.65Q360.70 73.70 357.00 73.70ZM414.80 72.50L398.40 72.50L398.40 0.10L414.80 0.10L414.80 72.50ZM441.70 73.70L441.70 73.70Q436.60 73.70 433.05 72.15Q429.50 70.60 427.75 67.50Q426.00 64.40 426.00 60L426.00 60L426.00 31.70L419.10 31.70L419.10 19.80L426.50 19.80L429.90 4.40L442.30 4.40L442.30 19.80L452.60 19.80L452.60 31.70L442.30 31.70L442.30 56Q442.30 58.80 443.40 60.30Q444.50 61.80 447.40 61.80L447.40 61.80L452.60 61.80L452.60 72Q451.30 72.40 449.35 72.85Q447.40 73.30 445.40 73.50Q443.40 73.70 441.70 73.70Z" fill="#2E9456"></path></svg>